# xmcd
#
# Track frame offsets: 
#        150
#        17883
#        35358
#        54016
#        70881
#        85281
#        100724
#        117009
#        134722
#        152122
#        173572
#        188733
#        203076
#        218737
#        244426
#        259883
#
# Disc length: 3664 seconds
#
# Revision: 0
# Processed by: cddbd v1.5.2PL0 Copyright (c) Steve Scherf et al.
# Submitted via: ExactAudioCopy v1.0b1
#
DISCID=da0e4e10
DTITLE=Various Artist - Uccess Grammy Rural Music
DYEAR=2010
DGENRE=Blues
TTITLE0=Lady Antebellum - Need You Now
TTITLE1=Taylor Swift - Love Story
TTITLE2=Shania Twain - Any Man Of Mine
TTITLE3=Lady Antebellum - America Honey
TTITLE4=Kellie Pickler - Things That Never Cross A Man's Mind
TTITLE5=Patty Loveless - You Can Feel Bad
TTITLE6=Colbie Caillat - Fallin For You
TTITLE7=Miranda Lambert - Time To Get A Gun
TTITLE8=Taylor Swift - You Belong With Me
TTITLE9=Brad Paisley - Letter To Me
TTITLE10=James Blunt - You're Beautiful
TTITLE11=Steve Gibbons Band - The Waiting Game
TTITLE12=Chris Young - Beer Or Gasoline
TTITLE13=Eagles - Hotel California
TTITLE14=Kate Voegele - Who You Are Without Me
TTITLE15=John Eenyer - Take My Home Country Roads
EXTD=
EXTT0=
EXTT1=
EXTT2=
EXTT3=
EXTT4=
EXTT5=
EXTT6=
EXTT7=
EXTT8=
EXTT9=
EXTT10=
EXTT11=
EXTT12=
EXTT13=
EXTT14=
EXTT15=
PLAYORDER=
